<svg id="svg" version="1.1" xmlns="http://www.w3.org/2000/svg" xmlns:xlink="http://www.w3.org/1999/xlink" width="400" height="400" viewBox="0, 0, 400,400"><g id="svgg"><path id="path0" d="M186.200 23.238 C 63.031 32.338,-16.442 155.204,25.682 271.400 C 26.913 274.795,30.553 283.601,31.019 284.314 C 31.293 284.730,66.565 269.660,82.872 262.160 C 121.540 244.374,157.712 223.442,170.832 211.261 L 173.000 209.248 162.097 198.318 L 151.194 187.389 154.731 183.869 L 158.268 180.348 176.776 186.974 C 186.955 190.618,195.418 193.600,195.582 193.600 C 197.325 193.600,207.238 184.154,216.151 174.000 C 219.916 169.710,227.498 161.276,232.999 155.258 C 238.499 149.239,243.218 144.018,243.485 143.654 C 243.913 143.070,239.419 140.007,205.549 117.796 C 184.417 103.938,167.063 92.498,166.986 92.374 C 166.908 92.250,170.337 88.659,174.606 84.394 L 182.367 76.640 229.179 93.374 L 275.990 110.107 279.052 107.353 C 295.169 92.860,305.768 84.692,316.648 78.381 C 319.738 76.588,324.642 74.400,325.568 74.400 C 326.604 74.400,325.707 73.368,321.145 69.315 C 284.316 36.586,234.724 19.653,186.200 23.238 " stroke="none" fill="#3b74c4" fill-rule="evenodd"></path><path id="path1" d="M331.051 82.845 C 327.501 92.034,317.653 105.916,302.989 122.400 C 300.542 125.150,297.982 128.039,297.300 128.819 L 296.059 130.239 312.803 177.019 L 329.547 223.800 321.690 231.687 L 313.833 239.575 311.583 236.087 C 308.110 230.702,263.538 162.620,263.370 162.444 C 263.104 162.165,261.795 163.287,253.136 171.218 C 248.441 175.517,239.830 183.274,234.000 188.455 C 222.635 198.554,218.286 202.868,214.730 207.570 L 212.484 210.540 214.203 215.370 C 215.149 218.026,218.100 226.294,220.761 233.743 C 223.423 241.191,225.600 247.495,225.600 247.751 C 225.600 248.008,224.069 249.741,222.197 251.603 L 218.794 254.988 207.887 244.087 L 196.980 233.186 195.335 234.893 C 184.537 246.091,163.049 282.443,147.558 315.716 C 143.831 323.719,143.919 323.096,146.301 324.598 C 156.680 331.146,167.376 343.129,173.891 355.510 C 176.531 360.526,176.381 360.386,179.149 360.394 C 185.235 360.411,196.205 363.023,202.600 365.978 C 204.550 366.878,206.255 367.477,206.390 367.308 C 206.525 367.138,207.670 365.619,208.936 363.931 C 227.518 339.148,263.432 332.355,289.400 348.712 L 290.600 349.468 294.200 345.810 C 306.233 333.584,322.726 325.958,338.983 325.104 L 340.966 325.000 344.095 321.000 C 399.248 250.497,395.298 147.719,334.941 82.845 L 332.192 79.891 331.051 82.845 " stroke="none" fill="#fc5454" fill-rule="evenodd"></path><path id="path2" d="" stroke="none" fill="#6864c8" fill-rule="evenodd"></path><path id="path3" d="" stroke="none" fill="#6864c8" fill-rule="evenodd"></path></g></svg>