<svg xmlns="http://www.w3.org/2000/svg" width="1000" height="1000" viewBox="0 0 1000 1000" version="1.1"><path d="M 828.456 205.206 C 820.873 228.355, 791.161 269.299, 744.785 320.508 L 740.250 325.516 782.098 442.508 L 823.946 559.500 804.223 579.226 L 784.500 598.952 722.026 503.422 C 687.665 450.880, 659.246 407.399, 658.874 406.796 C 657.998 405.378, 656.854 406.326, 630.888 430.001 C 619.125 440.726, 603.538 454.788, 596.250 461.251 C 553.407 499.242, 548.126 504.378, 537.366 518.527 L 531.302 526.500 547.985 573.173 L 564.668 619.846 555.591 628.923 L 546.513 638 519.188 610.750 L 491.862 583.500 487.375 588.500 C 459.565 619.490, 415.140 693.498, 377.523 771.500 C 362.809 802.010, 360.202 808.231, 361.891 808.796 C 362.656 809.052, 368.596 813.261, 375.090 818.149 C 400.875 837.560, 421.877 862.608, 435.702 890.438 C 440.773 900.648, 441.181 900.960, 449.500 900.992 C 465.814 901.056, 489.282 907.173, 512.139 917.319 L 515.778 918.934 518.540 914.717 C 534.718 890.014, 565.300 867.120, 595.500 857.105 C 612.647 851.418, 623.713 849.664, 642.500 849.654 C 672.780 849.638, 694.663 855.503, 722.712 871.150 L 726.923 873.500 733.433 866.370 C 745.890 852.726, 766.184 837.849, 783.925 829.355 C 801.937 820.731, 831.064 813, 845.544 813 C 847.905 813, 850.567 812.720, 851.459 812.377 C 853.627 811.545, 872.329 786.623, 882.628 770.842 C 926.481 703.642, 951.606 627.807, 956.949 546.517 C 959.515 507.479, 956.627 466.427, 948.505 426.500 C 932.395 347.306, 898.232 277.881, 844.913 215.985 C 829.464 198.051, 830.564 198.771, 828.456 205.206" stroke="none" fill="#fc5454" fill-rule="evenodd"/><path d="M 474.500 57.598 C 471.750 57.812, 463.650 58.445, 456.500 59.003 C 404.941 63.030, 346.794 78.839, 298.500 101.961 C 253.075 123.709, 212.616 151.937, 176.614 187 C 97.939 263.621, 51.389 358.733, 38.352 469.500 C 36.121 488.452, 35.806 543.924, 37.820 563 C 42.955 611.620, 56.849 665.200, 73.985 702.467 L 77.855 710.884 98.178 702.586 C 184.790 667.223, 262.872 630.427, 325 595.697 C 366.198 572.667, 406.438 546.134, 425.835 529.210 L 432.169 523.682 404.841 496.341 L 377.514 469 386.639 459.874 L 395.765 450.749 442.411 467.474 L 489.058 484.199 496.698 478.448 C 508.568 469.514, 518.509 459.529, 542.198 432.747 C 554.240 419.133, 573.409 397.812, 584.796 385.366 C 596.183 372.920, 606.456 361.559, 607.624 360.119 L 609.747 357.500 539.624 311.528 C 501.056 286.243, 457.615 257.745, 443.089 248.198 L 416.679 230.841 436.080 211.420 C 446.750 200.739, 455.880 192, 456.367 192 C 456.854 192, 509.612 210.707, 573.606 233.570 L 689.959 275.140 703.730 262.753 C 727.258 241.588, 750.430 222.852, 768.395 210.467 C 783.026 200.380, 802.131 189.507, 808.971 187.374 C 812.277 186.343, 814.987 185.189, 814.991 184.808 C 814.996 184.428, 809.038 178.872, 801.750 172.461 C 730.026 109.368, 643.508 71.012, 548 59.967 C 531.300 58.036, 487.138 56.612, 474.500 57.598" stroke="none" fill="#3b74c4" fill-rule="evenodd"/></svg>